<?xml version="1.0" encoding="UTF-8" standalone="no"?>
<svg width="64" height="64" viewBox="0 0 64 64" fill="none" xmlns="http://www.w3.org/2000/svg">
  <rect width="64" height="64" rx="8" fill="#374151"/>
  <path d="M32 16C23.1634 16 16 23.1634 16 32C16 40.8366 23.1634 48 32 48C40.8366 48 48 40.8366 48 32C48 23.1634 40.8366 16 32 16ZM32 44C25.3726 44 20 38.6274 20 32C20 25.3726 25.3726 20 32 20C38.6274 20 44 25.3726 44 32C44 38.6274 38.6274 44 32 44Z" fill="white"/>
  <path d="M32 24C27.5817 24 24 27.5817 24 32C24 36.4183 27.5817 40 32 40C36.4183 40 40 36.4183 40 32C40 27.5817 36.4183 24 32 24ZM32 36C29.7909 36 28 34.2091 28 32C28 29.7909 29.7909 28 32 28C34.2091 28 36 29.7909 36 32C36 34.2091 34.2091 36 32 36Z" fill="white"/>
</svg>
